# xmcd CD database file
#
# Track frame offsets:
#	150
#	22755
#	42057
#	58925
#
# Disc length: 1099 seconds
#
# Revision: 0
# Processed by: cddbd v1.5PL3 Copyright (c) Steve Scherf et al.
# Submitted via: CDex 1.50
#
DISCID=27044904
DTITLE=七尾旅人 - 鉄曜日の夜→蘭曜日の朝
DYEAR=1900
DGENRE=Vocal
TTITLE0=萌の歯
TTITLE1=告白ヴォーグ
TTITLE2=ナナオのCollegeLife(中卒）
TTITLE3=コナツ最後の日々
EXTD=
EXTT0=
EXTT1=
EXTT2=
EXTT3=
PLAYORDER=
